Coordinates
version=1
nRows=32
nColumns=18
inDegrees=yes

Units are S.I. units (second, meters, Newtons, ...)
If the header above contains a line with 'inDegrees', this indicates whether rotational values are in degrees (yes) or radians (no).

endheader
time	ground_thorax_rot_x	ground_thorax_rot_y	ground_thorax_rot_z	ground_thorax_tx	ground_thorax_ty	ground_thorax_tz	clav_prot	clav_elev	scapula_abduction	scapula_elevation	scapula_upward_rot	scapula_winging	plane_elv	shoulder_elv	axial_rot	elbow_flexion	pro_sup
      3.87000000	     -3.04240645	     -1.09813839	     -7.56848017	     -0.00467877	      0.00549075	     -0.00841535	    -39.74422066	      9.10731659	     -5.13258008	     -2.52182788	     66.71606884	    -11.01257025	     43.98318899	     95.93852433	    -19.16157341	      0.00000000	     34.32000000
      3.88000000	     -3.03991079	     -1.23869619	     -7.43955911	     -0.00482517	      0.00568952	     -0.00814911	    -39.56423643	      9.04477773	     -5.02373619	     -2.55611022	     66.45716696	    -10.91352092	     44.27418177	     95.56014433	    -19.19673276	      0.00000000	     34.32000000
      3.89000000	     -2.88792055	     -1.20737619	     -7.56410755	     -0.00485526	      0.00567695	     -0.00800047	    -39.48529199	      9.05311136	     -5.01608379	     -2.54778693	     66.30783533	    -10.88065838	     44.29122467	     95.41602711	    -19.20727695	      0.00000000	     34.32000000
      3.90000000	     -3.02624437	     -1.29234895	     -7.39300991	     -0.00491405	      0.00570766	     -0.00806510	    -39.21295408	      9.11335944	     -4.85431944	     -2.49232150	     65.97027911	    -10.76934227	     44.43292452	     95.01154263	    -19.23075677	      0.00000000	     34.32000000
      3.91000000	     -2.97404540	     -1.22950204	     -7.52257758	     -0.00483503	      0.00552175	     -0.00822466	    -39.14210676	      9.13291870	     -4.80468937	     -2.47498165	     65.89307884	    -10.74117436	     44.51050414	     94.91523521	    -19.24168642	      0.00000000	     34.32000000
      3.92000000	     -3.08843828	     -1.38891122	     -7.46082980	     -0.00475898	      0.00562351	     -0.00827794	    -39.03735919	      9.07334853	     -4.69106366	     -2.50897716	     65.79482158	    -10.67691430	     44.87156272	     94.56735770	    -19.28079763	      0.00000000	     34.32000000
      3.93000000	     -3.05467765	     -1.35019439	     -7.58315610	     -0.00478196	      0.00565443	     -0.00845847	    -38.97928069	      9.10484297	     -4.66173905	     -2.48436624	     65.72341369	    -10.65807615	     44.92457975	     94.48052324	    -19.28915087	      0.00000000	     34.32000000
      3.94000000	     -3.16226828	     -1.49756147	     -7.47292657	     -0.00476113	      0.00564232	     -0.00839181	    -38.79244461	      9.37170552	     -4.62360821	     -2.29283499	     65.48780300	    -10.63851567	     45.05095367	     94.06525726	    -19.29265867	      0.00000000	     34.32000000
      3.95000000	     -3.03967639	     -1.44683636	     -7.61303959	     -0.00461849	      0.00571734	     -0.00827760	    -38.71363955	      9.39771479	     -4.60842798	     -2.27119941	     65.35497574	    -10.60959207	     45.07419333	     93.93114892	    -19.30161061	      0.00000000	     34.32000000
      3.96000000	     -2.90795618	     -1.38785787	     -7.74513556	     -0.00454780	      0.00561625	     -0.00808478	    -38.62802707	      9.41888198	     -4.58783522	     -2.25252666	     65.21293592	    -10.57642079	     45.10240403	     93.78221230	    -19.31254701	      0.00000000	     34.32000000
      3.97000000	     -3.01379898	     -1.28546785	     -7.45166588	     -0.00485882	      0.00563646	     -0.00820207	    -38.36716268	      9.50264009	     -4.42321887	     -2.17927813	     64.91127136	    -10.47679926	     45.23239720	     93.20708373	    -19.33007258	      0.00000000	     34.32000000
      3.98000000	     -2.88071262	     -1.21293743	     -7.63227158	     -0.00483910	      0.00540390	     -0.00819096	    -38.26552290	      9.52302385	     -4.37780056	     -2.15949308	     64.76630955	    -10.43576325	     45.30349438	     93.05239485	    -19.34195646	      0.00000000	     34.32000000
      3.99000000	     -2.95752358	     -1.38274135	     -7.52410924	     -0.00480753	      0.00552490	     -0.00815091	    -38.00620355	      9.48190408	     -4.20783034	     -2.17068163	     64.42643779	    -10.30919325	     45.68304650	     92.61214391	    -19.29257893	      0.00000000	     34.32000000
      4.00000000	     -2.81869530	     -1.33853565	     -7.68952078	     -0.00477135	      0.00537749	     -0.00825423	    -37.91359288	      9.49716780	     -4.18579812	     -2.15463017	     64.26975889	    -10.27180280	     45.73922189	     92.45709774	    -19.30232198	      0.00000000	     34.32000000
      4.01000000	     -2.92421099	     -1.56632182	     -7.54416992	     -0.00477034	      0.00556054	     -0.00810441	    -37.70031719	      9.44092495	     -4.12417948	     -2.17935897	     63.88734082	    -10.16453275	     46.18994802	     92.06572317	    -19.26529761	      0.00000000	     34.32000000
      4.02000000	     -2.83864358	     -1.52346027	     -7.67912928	     -0.00484022	      0.00544719	     -0.00810682	    -37.62744849	      9.46056750	     -4.09726532	     -2.16105594	     63.77853713	    -10.13674464	     46.24175695	     91.95089754	    -19.27334386	      0.00000000	     34.32000000
      4.03000000	     -3.01278359	     -2.04086536	     -7.50212711	     -0.00485720	      0.00552842	     -0.00798853	    -37.08555113	      9.59967555	     -3.32705227	     -2.02415082	     63.65005984	     -9.92351694	     46.23432832	     91.44067994	    -18.52061652	      0.00000000	     34.32000000
      4.04000000	     -3.08402492	     -2.03126069	     -7.56007289	     -0.00481555	      0.00550765	     -0.00809010	    -36.96709982	      9.77364662	     -3.26953911	     -1.89717884	     63.54330451	     -9.91044991	     46.38260354	     91.22627446	    -18.51650180	      0.00000000	     34.32000000
      4.05000000	     -3.09566228	     -2.09876626	     -7.50354418	     -0.00485087	      0.00546859	     -0.00823455	    -36.77505913	     10.15563382	     -3.12069321	     -1.62277841	     63.47592219	     -9.90767215	     46.60421883	     90.92766879	    -18.41887640	      0.00000000	     34.32000000
      4.06000000	     -3.13454544	     -2.23501668	     -7.55832564	     -0.00482186	      0.00546752	     -0.00825693	    -36.62637716	     10.27105792	     -3.00936484	     -1.53313854	     63.35001933	     -9.86678606	     46.92216197	     90.63748469	    -18.40133404	      0.00000000	     34.32000000
      4.07000000	     -3.09749557	     -2.40493529	     -7.54086299	     -0.00493721	      0.00546725	     -0.00808968	    -36.43368933	     10.29832746	     -2.84345295	     -1.49992573	     63.16503980	     -9.78917349	     47.25287962	     90.24729170	    -18.38431180	      0.00000000	     34.32000000
      4.08000000	     -3.01340646	     -2.59061033	     -7.52359207	     -0.00503817	      0.00544152	     -0.00774515	    -36.19978047	     10.20051456	     -2.65526397	     -1.54843128	     62.87374103	     -9.66961539	     47.56479237	     89.78919551	    -18.36456001	      0.00000000	     34.32000000
      4.09000000	     -2.91500407	     -2.67974330	     -7.49951487	     -0.00515275	      0.00546958	     -0.00746940	    -35.91976773	     10.04631361	     -2.41827113	     -1.63127062	     62.52468944	     -9.51879182	     47.78562379	     89.34465822	    -18.31328659	      0.00000000	     34.32000000
      4.10000000	     -2.73447110	     -2.61447257	     -7.70129772	     -0.00514732	      0.00529814	     -0.00738525	    -35.80622566	     10.05806444	     -2.38472194	     -1.61404550	     62.33696324	     -9.47479260	     47.84626630	     89.15495215	    -18.32684704	      0.00000000	     34.32000000
      4.11000000	     -2.94848533	     -2.80257203	     -7.50833482	     -0.00519867	      0.00547111	     -0.00749065	    -35.47905078	     10.10162199	     -2.11760253	     -1.55758552	     62.00247764	     -9.34770623	     48.08033904	     88.60390375	    -18.29218573	      0.00000000	     34.32000000
      4.12000000	     -3.01300721	     -2.93427479	     -7.53669317	     -0.00509439	      0.00549667	     -0.00764488	    -35.33131239	     10.21286769	     -2.04058146	     -1.46948934	     61.83507920	     -9.30890662	     48.26266814	     88.24741715	    -18.31774630	      0.00000000	     34.32000000
      4.13000000	     -3.03489762	     -3.02711628	     -7.53607859	     -0.00501858	      0.00549332	     -0.00772548	    -35.19852194	     10.28299302	     -2.01676289	     -1.41014919	     61.61961547	     -9.26753862	     48.52453621	     87.77760255	    -18.39169764	      0.00000000	     34.32000000
      4.14000000	     -3.00764807	     -3.08082360	     -7.54691638	     -0.00500408	      0.00545591	     -0.00769514	    -35.04850829	     10.27760088	     -1.98891679	     -1.40014599	     61.34452988	     -9.20399227	     48.82562358	     87.22947991	    -18.47734175	      0.00000000	     34.32000000
      4.15000000	     -3.00173843	     -3.08507036	     -7.53554218	     -0.00506682	      0.00543866	     -0.00767792	    -34.87299024	     10.26229627	     -1.87133274	     -1.39483969	     61.11922767	     -9.12911857	     49.08330620	     86.55768215	    -18.57289525	      0.00000000	     34.32000000
      4.16000000	     -2.99963671	     -3.07727900	     -7.54791060	     -0.00507704	      0.00546223	     -0.00764741	    -34.69367981	     10.30618073	     -1.74312345	     -1.34888933	     60.92157666	     -9.06484097	     49.36662445	     86.03407620	    -18.66485534	      0.00000000	     34.32000000
      4.17000000	     -3.04736068	     -3.00598465	     -7.51840867	     -0.00506537	      0.00550511	     -0.00779498	    -34.53929028	     10.44000428	     -1.62734290	     -1.24416734	     60.79513289	     -9.02834897	     49.57355391	     85.51006996	    -18.79067625	      0.00000000	     34.32000000
      4.18000000	     -3.09192686	     -3.00577541	     -7.49453602	     -0.00499605	      0.00551304	     -0.00799163	    -34.44674407	     10.63541160	     -1.61731313	     -1.10261028	     60.69490545	     -9.02738390	     49.85876017	     84.99816846	    -18.98909309	      0.00000000	     34.32000000
